<svg width="350" height="222" viewBox="0 0 350 222" fill="none" xmlns="http://www.w3.org/2000/svg">
<path d="M349.92 20.939V200.569C349.92 212.127 340.539 221.508 328.981 221.508H20.939C9.3811 221.508 0 212.127 0 200.569V20.939C0 9.3811 9.3811 0 20.939 0H328.991C333.127 0 336.994 1.20244 340.228 3.28597C346.054 6.98658 349.92 13.5171 349.92 20.939Z" fill="url(#paint0_linear_34_2689)"/>
<path d="M349.92 20.939V157.333C317.009 169.813 279.909 165.605 270.901 149.756C264.298 138.135 277.764 129.076 274.022 107.639C272.239 97.4805 267.564 90.0585 260.898 83.0512C251.973 73.6287 239.462 64.9732 225.665 51.4768C216.792 42.8006 195.044 21.5299 183.186 0H328.981C333.117 0 336.984 1.20244 340.228 3.29634C346.064 6.98659 349.92 13.5067 349.92 20.939Z" fill="url(#paint1_linear_34_2689)"/>
<path d="M349.92 68.2176V200.569C349.92 212.127 340.55 221.497 328.992 221.497H20.9394C9.38147 221.497 0.0107422 212.127 0.0107422 200.569V98.942C6.04367 92.9713 13.1028 87.3841 21.3229 82.678C46.3876 68.3005 70.6126 69.2646 118.036 71.7627C175.173 74.7688 179.195 84.5542 219.425 85.7981C235.979 86.3164 249.455 85.0932 260.899 83.0511C299.47 76.0749 314.749 59.4792 345.774 67.0774C347.153 67.4194 348.531 67.7926 349.92 68.2176Z" fill="url(#paint2_linear_34_2689)"/>
<path d="M107.795 0C102.093 55.6543 56.4524 99.4811 0 102.352V20.939C0 9.3811 9.3811 0 20.939 0H107.795Z" fill="url(#paint3_linear_34_2689)"/>
<path opacity="0.33" d="M259.747 221.498H112.562L176.147 157.913C181.651 152.419 190.648 152.419 196.153 157.913L259.747 221.498Z" fill="url(#paint4_linear_34_2689)"/>
<path opacity="0.27" d="M349.92 198.112V200.559C349.92 212.117 340.539 221.498 328.981 221.498H20.939C9.3811 221.498 0 212.117 0 200.559V118.192C5.80488 115.102 12.5116 112.749 20.0268 111.92C37.4415 110.023 51.1037 117.279 67.15 126.059C97.9262 142.904 102.767 156.224 120.171 167.295C153.653 188.596 181.164 168.238 237.99 169.648C280.801 170.726 326.265 183.787 349.92 198.112Z" fill="url(#paint5_linear_34_2689)"/>
<path opacity="0.53" d="M349.92 20.939V200.569C349.92 212.127 340.539 221.508 328.981 221.508H20.939C9.3811 221.508 0 212.127 0 200.569V20.939C0 9.3811 9.3811 0 20.939 0H328.991C333.127 0 336.994 1.20244 340.228 3.28597C346.054 6.98658 349.92 13.5171 349.92 20.939Z" fill="url(#paint6_linear_34_2689)"/>
<path d="M36.8089 36.5086H29.9052V41.5671H36.5186V43.5263H29.9052V50.1397H27.832V34.5391H36.8089V36.5086Z" fill="white"/>
<path d="M40.1055 36.975C39.7324 36.975 39.4214 36.8506 39.1726 36.5915C38.9238 36.3427 38.7891 36.0317 38.7891 35.6793C38.7891 35.3268 38.9135 35.0158 39.1726 34.7567C39.4214 34.4976 39.7324 34.3628 40.1055 34.3628C40.458 34.3628 40.7689 34.4976 41.0177 34.7567C41.2665 35.0158 41.4013 35.3268 41.4013 35.6793C41.4013 36.0317 41.2769 36.3427 41.0177 36.5915C40.7689 36.8402 40.4683 36.975 40.1055 36.975ZM39.1311 50.1396V38.9963H41.0696V50.1396H39.1311Z" fill="white"/>
<path d="M49.5795 38.7061C50.8856 38.7061 51.9326 39.1207 52.7204 39.9396C53.5082 40.7689 53.9021 41.878 53.9021 43.2878V50.1292H51.9637V43.4018C51.9637 42.5 51.7149 41.7951 51.2277 41.2975C50.7405 40.8 50.0564 40.5512 49.196 40.5512C48.232 40.5512 47.4545 40.8518 46.8533 41.453C46.2521 42.0542 45.9619 42.9768 45.9619 44.2311V50.1292H44.0234V38.9963H45.9619V40.603C46.7497 39.3384 47.9625 38.7061 49.5795 38.7061Z" fill="white"/>
<path d="M65.8124 38.9962H67.7508V50.1395H65.8124V48.2218C64.8484 49.6937 63.4386 50.4297 61.6039 50.4297C60.049 50.4297 58.7118 49.8596 57.613 48.7297C56.5142 47.5895 55.9648 46.2108 55.9648 44.573C55.9648 42.9352 56.5142 41.5566 57.613 40.4163C58.7118 39.2761 60.0386 38.7163 61.6039 38.7163C63.449 38.7163 64.8484 39.4523 65.8124 40.9242V38.9962ZM61.8526 48.5535C62.9825 48.5535 63.9258 48.17 64.6825 47.4029C65.4392 46.6358 65.8228 45.6925 65.8228 44.5626C65.8228 43.4328 65.4392 42.4895 64.6825 41.7224C63.9258 40.9553 62.9825 40.5718 61.8526 40.5718C60.7331 40.5718 59.8002 40.9553 59.0435 41.7224C58.2868 42.4895 57.9033 43.4328 57.9033 44.5626C57.9033 45.6925 58.2868 46.6358 59.0435 47.4029C59.8002 48.17 60.7331 48.5535 61.8526 48.5535Z" fill="white"/>
<path d="M75.93 50.4297C74.2507 50.4297 72.8513 49.87 71.7421 48.7505C70.6226 47.6309 70.0732 46.2419 70.0732 44.573C70.0732 42.9041 70.633 41.5151 71.7421 40.3956C72.8513 39.2761 74.2507 38.7163 75.93 38.7163C77.0287 38.7163 78.0135 38.9754 78.8946 39.5041C79.7757 40.0328 80.4287 40.7376 80.8537 41.6291L79.2263 42.562C78.9464 41.9712 78.511 41.4944 77.9202 41.1315C77.3293 40.7687 76.6659 40.5925 75.93 40.5925C74.8104 40.5925 73.8879 40.9761 73.1312 41.7328C72.3745 42.4895 72.0117 43.4328 72.0117 44.5626C72.0117 45.6718 72.3848 46.6151 73.1312 47.3718C73.8775 48.1285 74.8104 48.512 75.93 48.512C76.6763 48.512 77.3397 48.3358 77.9306 47.9834C78.5214 47.6309 78.9775 47.1645 79.2885 46.5736L80.9367 47.5273C80.4598 48.4084 79.7757 49.1029 78.8842 49.6316C78.0031 50.1602 77.008 50.4297 75.93 50.4297Z" fill="white"/>
<path d="M83.8389 36.975C83.4658 36.975 83.1548 36.8506 82.906 36.5915C82.6572 36.3427 82.5225 36.0317 82.5225 35.6793C82.5225 35.3268 82.6469 35.0158 82.906 34.7567C83.1548 34.4976 83.4658 34.3628 83.8389 34.3628C84.1914 34.3628 84.5023 34.4976 84.7511 34.7567C84.9999 35.0158 85.1347 35.3268 85.1347 35.6793C85.1347 36.0317 85.0103 36.3427 84.7511 36.5915C84.492 36.8402 84.1914 36.975 83.8389 36.975ZM82.8542 50.1396V38.9963H84.7926V50.1396H82.8542Z" fill="white"/>
<path d="M35.472 93.6865V95.4487L32.9634 95.3347L34.425 97.3457L32.8494 98.289L31.6055 96.0292L30.3616 98.289L28.8171 97.3457L30.2476 95.3347L27.7598 95.4487V93.6865L30.2476 93.8213L28.8171 91.7792L30.3616 90.8359L31.6055 93.0957L32.8494 90.8359L34.425 91.7792L32.9634 93.8213L35.472 93.6865Z" fill="white"/>
<path d="M48.4085 93.6865V95.4487L45.8999 95.3347L47.3615 97.3457L45.7859 98.289L44.542 96.0292L43.2981 98.289L41.7536 97.3457L43.1841 95.3347L40.6963 95.4487V93.6865L43.1841 93.8213L41.7536 91.7792L43.2981 90.8359L44.542 93.0957L45.7859 90.8359L47.3615 91.7792L45.8999 93.8213L48.4085 93.6865Z" fill="white"/>
<path d="M61.3558 93.6865V95.4487L58.8472 95.3347L60.3088 97.3457L58.7332 98.289L57.4893 96.0292L56.2454 98.289L54.7009 97.3457L56.1314 95.3347L53.6436 95.4487V93.6865L56.1314 93.8213L54.7009 91.7792L56.2454 90.8359L57.4893 93.0957L58.7332 90.8359L60.3088 91.7792L58.8472 93.8213L61.3558 93.6865Z" fill="white"/>
<path d="M74.302 93.6865V95.4487L71.7935 95.3347L73.2551 97.3457L71.6795 98.289L70.4356 96.0292L69.1917 98.289L67.6472 97.3457L69.0777 95.3347L66.5898 95.4487V93.6865L69.0777 93.8213L67.6472 91.7792L69.1917 90.8359L70.4356 93.0957L71.6795 90.8359L73.2551 91.7792L71.7935 93.8213L74.302 93.6865Z" fill="white"/>
<path d="M96.2161 93.6865V95.4487L93.7076 95.3347L95.1691 97.3457L93.5935 98.289L92.3496 96.0292L91.1057 98.289L89.5612 97.3457L90.9917 95.3347L88.5039 95.4487V93.6865L90.9917 93.8213L89.5612 91.7792L91.1057 90.8359L92.3496 93.0957L93.5935 90.8359L95.1691 91.7792L93.7076 93.8213L96.2161 93.6865Z" fill="white"/>
<path d="M109.162 93.6865V95.4487L106.654 95.3347L108.115 97.3457L106.54 98.289L105.296 96.0292L104.052 98.289L102.508 97.3457L103.938 95.3347L101.45 95.4487V93.6865L103.938 93.8213L102.508 91.7792L104.052 90.8359L105.296 93.0957L106.54 90.8359L108.115 91.7792L106.654 93.8213L109.162 93.6865Z" fill="white"/>
<path d="M122.11 93.6865V95.4487L119.601 95.3347L121.063 97.3457L119.487 98.289L118.243 96.0292L116.999 98.289L115.455 97.3457L116.885 95.3347L114.397 95.4487V93.6865L116.885 93.8213L115.455 91.7792L116.999 90.8359L118.243 93.0957L119.487 90.8359L121.063 91.7792L119.601 93.8213L122.11 93.6865Z" fill="white"/>
<path d="M135.046 93.6865V95.4487L132.538 95.3347L133.999 97.3457L132.424 98.289L131.18 96.0292L129.936 98.289L128.391 97.3457L129.822 95.3347L127.334 95.4487V93.6865L129.822 93.8213L128.391 91.7792L129.936 90.8359L131.18 93.0957L132.424 90.8359L133.999 91.7792L132.538 93.8213L135.046 93.6865Z" fill="white"/>
<path d="M156.97 93.6865V95.4487L154.461 95.3347L155.923 97.3457L154.347 98.289L153.104 96.0292L151.86 98.289L150.315 97.3457L151.746 95.3347L149.258 95.4487V93.6865L151.746 93.8213L150.315 91.7792L151.86 90.8359L153.104 93.0957L154.347 90.8359L155.923 91.7792L154.461 93.8213L156.97 93.6865Z" fill="white"/>
<path d="M169.907 93.6865V95.4487L167.398 95.3347L168.86 97.3457L167.284 98.289L166.04 96.0292L164.796 98.289L163.252 97.3457L164.682 95.3347L162.194 95.4487V93.6865L164.682 93.8213L163.252 91.7792L164.796 90.8359L166.04 93.0957L167.284 90.8359L168.86 91.7792L167.398 93.8213L169.907 93.6865Z" fill="white"/>
<path d="M182.854 93.6865V95.4487L180.345 95.3347L181.807 97.3457L180.231 98.289L178.987 96.0292L177.743 98.289L176.199 97.3457L177.629 95.3347L175.142 95.4487V93.6865L177.629 93.8213L176.199 91.7792L177.743 90.8359L178.987 93.0957L180.231 90.8359L181.807 91.7792L180.345 93.8213L182.854 93.6865Z" fill="white"/>
<path d="M195.801 93.6865V95.4487L193.293 95.3347L194.754 97.3457L193.179 98.289L191.935 96.0292L190.691 98.289L189.146 97.3457L190.577 95.3347L188.089 95.4487V93.6865L190.577 93.8213L189.146 91.7792L190.691 90.8359L191.935 93.0957L193.179 90.8359L194.754 91.7792L193.293 93.8213L195.801 93.6865Z" fill="white"/>
<path d="M209.411 110.521V108.427L216.232 101.471C218.056 99.6469 218.968 98.0817 218.968 96.7756C218.968 95.6872 218.637 94.8475 217.973 94.2359C217.31 93.6244 216.501 93.3238 215.548 93.3238C213.723 93.3238 212.396 94.1841 211.578 95.9152L209.421 94.6506C210.023 93.3963 210.873 92.453 211.951 91.8103C213.029 91.1677 214.221 90.8463 215.527 90.8463C217.144 90.8463 218.554 91.3853 219.746 92.4426C220.938 93.5103 221.539 94.9408 221.539 96.7445C221.539 98.6933 220.389 100.818 218.087 103.119L213.164 108.033H221.902V110.521H209.411Z" fill="white"/>
<path d="M233.471 99.1181C234.942 99.398 236.155 100.03 237.088 101.025C238.031 102.021 238.498 103.285 238.498 104.809C238.498 106.685 237.855 108.168 236.57 109.256C235.285 110.344 233.719 110.883 231.874 110.883C230.402 110.883 229.096 110.552 227.956 109.878C226.816 109.204 226.007 108.24 225.53 106.965L227.686 105.69C228.256 107.473 229.656 108.364 231.885 108.364C233.077 108.364 234.051 108.053 234.808 107.421C235.564 106.799 235.938 105.918 235.938 104.799C235.938 103.679 235.564 102.798 234.808 102.166C234.051 101.533 233.077 101.212 231.885 101.212H231.221L230.195 99.6364L234.663 93.5931H226.08V91.1882H237.669L237.658 93.4584L233.471 99.1181Z" fill="white"/>
<path d="M257.571 104.446V106.851H255.228V110.521H252.658V106.851H242.8V104.446L249.724 91.1986H252.482L245.557 104.446H252.647V98.9834H255.218V104.446H257.571Z" fill="white"/>
<path d="M267.667 98.7346C269.492 98.7346 271.036 99.2736 272.29 100.352C273.555 101.43 274.187 102.912 274.187 104.809C274.187 106.685 273.545 108.168 272.259 109.256C270.974 110.344 269.409 110.883 267.563 110.883C266.092 110.883 264.775 110.531 263.614 109.826C262.453 109.121 261.645 108.095 261.188 106.747L263.365 105.503C263.624 106.447 264.122 107.152 264.858 107.639C265.594 108.126 266.496 108.375 267.563 108.375C268.776 108.375 269.761 108.064 270.518 107.432C271.274 106.799 271.648 105.928 271.648 104.809C271.648 103.689 271.274 102.808 270.518 102.176C269.761 101.544 268.797 101.222 267.615 101.222H262.152L262.847 91.1986H273.441V93.6035H265.19L264.848 98.7346H267.667Z" fill="white"/>
<path d="M29.3976 163.304C28.2677 163.304 27.3348 162.931 26.5988 162.184C25.8628 161.438 25.5 160.526 25.5 159.437C25.5 158.349 25.8628 157.437 26.5988 156.69C27.3348 155.944 28.2677 155.571 29.3976 155.571C30.0817 155.571 30.7037 155.737 31.2738 156.058C31.8439 156.39 32.2896 156.825 32.611 157.374L31.7506 157.872C31.5329 157.457 31.2219 157.136 30.7969 156.887C30.3719 156.638 29.9055 156.524 29.3976 156.524C28.5372 156.524 27.8427 156.804 27.2933 157.354C26.7543 157.903 26.4744 158.598 26.4744 159.427C26.4744 160.246 26.7439 160.94 27.2933 161.49C27.8323 162.039 28.5372 162.319 29.3976 162.319C29.9055 162.319 30.3719 162.195 30.7969 161.956C31.2219 161.707 31.5329 161.386 31.7506 160.982L32.611 161.469C32.3 162.018 31.8543 162.464 31.2841 162.796C30.714 163.128 30.0817 163.304 29.3976 163.304Z" fill="white"/>
<path d="M38.0215 157.841H38.9441V163.169H38.0215V162.257C37.5551 162.962 36.8916 163.314 36.0106 163.314C35.2642 163.314 34.6319 163.045 34.1032 162.495C33.5746 161.956 33.3154 161.293 33.3154 160.505C33.3154 159.727 33.5746 159.064 34.1032 158.515C34.6319 157.976 35.2642 157.696 36.0106 157.696C36.8916 157.696 37.5654 158.048 38.0215 158.753V157.841ZM36.1246 162.402C36.6636 162.402 37.1197 162.215 37.4721 161.853C37.8349 161.49 38.0112 161.034 38.0112 160.495C38.0112 159.956 37.8349 159.499 37.4721 159.137C37.1093 158.774 36.6636 158.587 36.1246 158.587C35.5959 158.587 35.1398 158.774 34.7874 159.137C34.4246 159.499 34.2484 159.956 34.2484 160.495C34.2484 161.034 34.4246 161.49 34.7874 161.853C35.1502 162.226 35.5959 162.402 36.1246 162.402Z" fill="white"/>
<path d="M41.2771 158.732C41.5777 158.069 42.1374 157.737 42.9356 157.737V158.701C42.4795 158.681 42.096 158.805 41.7642 159.064C41.4429 159.323 41.2771 159.748 41.2771 160.329V163.148H40.3545V157.82H41.2771V158.732Z" fill="white"/>
<path d="M47.9629 155.705H48.8855V163.158H47.9629V162.246C47.4965 162.951 46.8331 163.304 45.952 163.304C45.2056 163.304 44.5733 163.034 44.0446 162.485C43.516 161.946 43.2568 161.282 43.2568 160.494C43.2568 159.717 43.516 159.054 44.0446 158.504C44.5733 157.965 45.2056 157.685 45.952 157.685C46.8331 157.685 47.5068 158.038 47.9629 158.743V155.705ZM46.0763 162.402C46.6154 162.402 47.0715 162.215 47.4239 161.852C47.7867 161.49 47.9629 161.033 47.9629 160.494C47.9629 159.955 47.7867 159.499 47.4239 159.137C47.0611 158.774 46.6154 158.587 46.0763 158.587C45.5477 158.587 45.0916 158.774 44.7392 159.137C44.3763 159.499 44.2001 159.955 44.2001 160.494C44.2001 161.033 44.3763 161.49 44.7392 161.852C45.0916 162.226 45.5373 162.402 46.0763 162.402Z" fill="white"/>
<path d="M57.6655 155.705H58.6503V163.158H57.6655V159.8H54.0479V163.158H53.0527V155.705H54.0479V158.867H57.6655V155.705Z" fill="white"/>
<path d="M64.6412 162.485C64.0918 163.024 63.4284 163.293 62.6509 163.293C61.8735 163.293 61.2101 163.024 60.6607 162.485C60.1217 161.946 59.8418 161.282 59.8418 160.495C59.8418 159.707 60.1113 159.043 60.6607 158.504C61.1997 157.965 61.8631 157.696 62.6509 157.696C63.4387 157.696 64.0918 157.965 64.6412 158.504C65.1906 159.043 65.4601 159.707 65.4601 160.495C65.4601 161.282 65.1906 161.946 64.6412 162.485ZM62.6509 162.392C63.1796 162.392 63.6357 162.215 63.9881 161.853C64.3509 161.49 64.5272 161.044 64.5272 160.505C64.5272 159.966 64.3509 159.51 63.9881 159.157C63.6253 158.795 63.1796 158.618 62.6509 158.618C62.1223 158.618 61.6869 158.795 61.3241 159.157C60.9613 159.52 60.7851 159.976 60.7851 160.505C60.7851 161.044 60.9613 161.5 61.3241 161.853C61.6869 162.215 62.1223 162.392 62.6509 162.392Z" fill="white"/>
<path d="M66.5596 163.159V155.384H67.4821V163.159H66.5596Z" fill="white"/>
<path d="M73.3077 155.705H74.2302V163.158H73.3077V162.246C72.8412 162.951 72.1778 163.304 71.2967 163.304C70.5503 163.304 69.918 163.034 69.3894 162.485C68.8607 161.946 68.6016 161.282 68.6016 160.494C68.6016 159.717 68.8607 159.054 69.3894 158.504C69.918 157.965 70.5503 157.685 71.2967 157.685C72.1778 157.685 72.8516 158.038 73.3077 158.743V155.705ZM71.4107 162.402C71.9497 162.402 72.4058 162.215 72.7583 161.852C73.1211 161.49 73.2973 161.033 73.2973 160.494C73.2973 159.955 73.1211 159.499 72.7583 159.137C72.3955 158.774 71.9497 158.587 71.4107 158.587C70.882 158.587 70.426 158.774 70.0735 159.137C69.7107 159.499 69.5345 159.955 69.5345 160.494C69.5345 161.033 69.7107 161.49 70.0735 161.852C70.4363 162.226 70.882 162.402 71.4107 162.402Z" fill="white"/>
<path d="M76.2929 160.92C76.3862 161.396 76.6039 161.77 76.946 162.029C77.288 162.288 77.713 162.423 78.2209 162.423C78.9258 162.423 79.4338 162.163 79.7551 161.645L80.5429 162.091C80.0246 162.889 79.2472 163.293 78.2002 163.293C77.3502 163.293 76.6661 163.034 76.1374 162.495C75.6088 161.967 75.3496 161.293 75.3496 160.484C75.3496 159.686 75.6088 159.012 76.127 158.484C76.6453 157.955 77.3191 157.685 78.138 157.685C78.9155 157.685 79.5581 157.965 80.0453 158.515C80.5429 159.064 80.7813 159.727 80.7813 160.505C80.7813 160.64 80.7709 160.774 80.7502 160.92H76.2929ZM78.138 158.567C77.6405 158.567 77.2258 158.712 76.9045 158.992C76.5831 159.271 76.3758 159.645 76.3033 160.111H79.8588C79.7758 159.603 79.5789 159.22 79.2575 158.96C78.9258 158.701 78.563 158.567 78.138 158.567Z" fill="white"/>
<path d="M82.7712 158.732C83.0718 158.069 83.6316 157.737 84.4297 157.737V158.701C83.9736 158.681 83.5901 158.805 83.2584 159.064C82.937 159.323 82.7712 159.748 82.7712 160.329V163.148H81.8486V157.82H82.7712V158.732Z" fill="white"/>
<path d="M90.6492 157.696C91.2711 157.696 91.779 157.893 92.1522 158.287C92.5254 158.681 92.712 159.22 92.712 159.893V163.159H91.7894V159.945C91.7894 159.51 91.6754 159.178 91.437 158.94C91.1985 158.701 90.8772 158.587 90.4729 158.587C90.0065 158.587 89.6333 158.732 89.3534 159.023C89.0735 159.313 88.9284 159.748 88.9284 160.349V163.169H88.0059V157.841H88.9284V158.608C89.3016 157.996 89.8821 157.696 90.6492 157.696Z" fill="white"/>
<path d="M98.4131 157.841H99.3357V163.169H98.4131V162.257C97.9467 162.962 97.2832 163.314 96.4022 163.314C95.6558 163.314 95.0235 163.045 94.4948 162.495C93.9662 161.956 93.707 161.293 93.707 160.505C93.707 159.727 93.9662 159.064 94.4948 158.515C95.0235 157.976 95.6558 157.696 96.4022 157.696C97.2832 157.696 97.957 158.048 98.4131 158.753V157.841ZM96.5162 162.402C97.0552 162.402 97.5113 162.215 97.8637 161.853C98.2265 161.49 98.4028 161.034 98.4028 160.495C98.4028 159.956 98.2265 159.499 97.8637 159.137C97.5009 158.774 97.0552 158.587 96.5162 158.587C95.9875 158.587 95.5314 158.774 95.179 159.137C94.8162 159.499 94.64 159.956 94.64 160.495C94.64 161.034 94.8162 161.49 95.179 161.853C95.5418 162.226 95.9875 162.402 96.5162 162.402Z" fill="white"/>
<path d="M106.499 157.696C107.1 157.696 107.577 157.893 107.95 158.276C108.323 158.66 108.499 159.188 108.499 159.852V163.159H107.577V159.883C107.577 159.468 107.473 159.147 107.255 158.929C107.038 158.701 106.758 158.587 106.405 158.587C106.011 158.587 105.69 158.722 105.452 158.981C105.213 159.24 105.099 159.655 105.099 160.204V163.169H104.177V159.893C104.177 159.479 104.073 159.157 103.876 158.94C103.669 158.712 103.399 158.598 103.047 158.598C102.653 158.598 102.331 158.732 102.072 159.002C101.813 159.271 101.678 159.676 101.678 160.215V163.179H100.756V157.851H101.678V158.567C102.041 157.996 102.57 157.717 103.264 157.717C103.98 157.717 104.498 158.017 104.83 158.618C105.192 157.996 105.752 157.696 106.499 157.696Z" fill="white"/>
<path d="M110.437 160.92C110.531 161.396 110.748 161.77 111.09 162.029C111.433 162.288 111.858 162.423 112.365 162.423C113.07 162.423 113.578 162.163 113.9 161.645L114.687 162.091C114.169 162.889 113.392 163.293 112.345 163.293C111.495 163.293 110.811 163.034 110.282 162.495C109.753 161.967 109.494 161.293 109.494 160.484C109.494 159.686 109.753 159.012 110.272 158.484C110.79 157.955 111.464 157.685 112.283 157.685C113.06 157.685 113.703 157.965 114.19 158.515C114.687 159.064 114.926 159.727 114.926 160.505C114.926 160.64 114.915 160.774 114.895 160.92H110.437ZM112.283 158.567C111.785 158.567 111.37 158.712 111.049 158.992C110.728 159.271 110.52 159.645 110.448 160.111H113.993C113.91 159.603 113.713 159.22 113.392 158.96C113.081 158.701 112.708 158.567 112.283 158.567Z" fill="white"/>
<path d="M32.7558 173.866H35.0052V185.269H33.2948L28.4125 178.293V185.269H26.1631V173.866H27.8734L32.7558 180.812V173.866Z" fill="white"/>
<path d="M43.9613 184.253C43.1217 185.082 42.1058 185.497 40.9034 185.497C39.701 185.497 38.6747 185.082 37.8455 184.253C37.0162 183.424 36.6016 182.408 36.6016 181.195C36.6016 179.993 37.0162 178.977 37.8455 178.137C38.6747 177.308 39.6906 176.893 40.9034 176.893C42.1058 176.893 43.1321 177.308 43.9613 178.137C44.801 178.966 45.2156 179.982 45.2156 181.195C45.2156 182.408 44.7906 183.424 43.9613 184.253ZM39.3174 182.812C39.7321 183.237 40.2607 183.445 40.893 183.445C41.5254 183.445 42.054 183.237 42.4686 182.812C42.8936 182.387 43.101 181.848 43.101 181.195C43.101 180.542 42.8936 180.003 42.4686 179.588C42.0436 179.163 41.515 178.956 40.893 178.956C40.2711 178.956 39.7424 179.163 39.3174 179.588C38.9028 180.013 38.6955 180.552 38.6955 181.195C38.6955 181.848 38.9028 182.387 39.3174 182.812Z" fill="white"/>
<path d="M55.6954 176.904C56.6284 176.904 57.3747 177.204 57.9344 177.816C58.4942 178.427 58.7741 179.236 58.7741 180.262V185.279H56.6698V180.407C56.6698 179.92 56.5454 179.536 56.307 179.267C56.0686 178.997 55.7265 178.863 55.3015 178.863C54.8247 178.863 54.4515 179.018 54.182 179.34C53.9125 179.661 53.7881 180.107 53.7881 180.708V185.29H51.6942V180.418C51.6942 179.93 51.5698 179.547 51.3314 179.277C51.093 179.008 50.7509 178.873 50.3259 178.873C49.8595 178.873 49.4863 179.029 49.2064 179.35C48.9265 179.661 48.7918 180.117 48.7918 180.718V185.3H46.6875V177.152H48.7918V178.013C49.279 177.287 50.0357 176.924 51.0515 176.924C52.0466 176.924 52.793 177.318 53.2698 178.096C53.8192 177.287 54.6277 176.904 55.6954 176.904Z" fill="white"/>
<path d="M66.756 177.132H68.8603V185.279H66.756V184.315C66.1237 185.103 65.2426 185.507 64.1023 185.507C63.0139 185.507 62.081 185.093 61.3035 184.263C60.5261 183.434 60.1426 182.418 60.1426 181.205C60.1426 180.003 60.5261 178.987 61.3035 178.147C62.081 177.318 63.0139 176.904 64.1023 176.904C65.2426 176.904 66.1237 177.297 66.756 178.096V177.132ZM62.8792 182.854C63.3042 183.279 63.8432 183.496 64.4962 183.496C65.1493 183.496 65.6883 183.279 66.1133 182.854C66.5383 182.429 66.756 181.869 66.756 181.195C66.756 180.521 66.5383 179.972 66.1133 179.547C65.6883 179.122 65.1493 178.904 64.4962 178.904C63.8432 178.904 63.3042 179.122 62.8792 179.547C62.4542 179.972 62.2468 180.532 62.2468 181.195C62.2468 181.869 62.4645 182.429 62.8792 182.854Z" fill="white"/>
<path d="M75.2975 176.904C76.1889 176.904 76.9249 177.204 77.5054 177.795C78.0859 178.396 78.3761 179.215 78.3761 180.272V185.269H76.2718V180.532C76.2718 179.993 76.1267 179.578 75.8365 179.288C75.5462 178.997 75.1523 178.852 74.6651 178.852C74.1261 178.852 73.6907 179.018 73.359 179.36C73.0377 179.702 72.8718 180.2 72.8718 180.874V185.269H70.7676V177.121H72.8718V178.033C73.3798 177.277 74.1883 176.904 75.2975 176.904Z" fill="white"/>
<path d="M95.4896 173.866V185.269H93.2609V177.878L90.0475 183.165L89.7884 183.175L86.5853 177.909V185.279H84.3359V173.877H86.6475L89.9128 179.257L93.1677 173.877H95.4896V173.866Z" fill="white"/>
<path d="M103.699 177.132H105.804V185.279H103.699V184.315C103.067 185.103 102.186 185.507 101.046 185.507C99.9573 185.507 99.0243 185.093 98.2469 184.263C97.4695 183.434 97.0859 182.418 97.0859 181.205C97.0859 180.003 97.4695 178.987 98.2469 178.147C99.0243 177.318 99.9573 176.904 101.046 176.904C102.186 176.904 103.067 177.297 103.699 178.096V177.132ZM99.8225 182.854C100.248 183.279 100.787 183.496 101.44 183.496C102.093 183.496 102.632 183.279 103.057 182.854C103.482 182.429 103.699 181.869 103.699 181.195C103.699 180.521 103.482 179.972 103.057 179.547C102.632 179.122 102.093 178.904 101.44 178.904C100.787 178.904 100.248 179.122 99.8225 179.547C99.3975 179.972 99.1902 180.532 99.1902 181.195C99.1902 181.869 99.3975 182.429 99.8225 182.854Z" fill="white"/>
<path d="M112.231 176.904C113.123 176.904 113.858 177.204 114.439 177.795C115.019 178.396 115.31 179.215 115.31 180.272V185.269H113.205V180.532C113.205 179.993 113.06 179.578 112.77 179.288C112.48 178.997 112.086 178.852 111.599 178.852C111.06 178.852 110.624 179.018 110.293 179.36C109.971 179.702 109.805 180.2 109.805 180.874V185.269H107.701V177.121H109.805V178.033C110.324 177.277 111.132 176.904 112.231 176.904Z" fill="white"/>
<path d="M119.57 183.299H123.188V185.269H116.761V183.87L120.192 179.091H116.916V177.121H123.022V178.521L119.57 183.299Z" fill="white"/>
<path d="M131.179 184.253C130.339 185.082 129.324 185.497 128.121 185.497C126.919 185.497 125.893 185.082 125.063 184.253C124.234 183.424 123.819 182.408 123.819 181.195C123.819 179.993 124.234 178.977 125.063 178.137C125.893 177.308 126.908 176.893 128.121 176.893C129.324 176.893 130.35 177.308 131.179 178.137C132.019 178.966 132.433 179.982 132.433 181.195C132.433 182.408 132.008 183.424 131.179 184.253ZM126.546 182.812C126.96 183.237 127.489 183.445 128.121 183.445C128.753 183.445 129.282 183.237 129.697 182.812C130.122 182.387 130.329 181.848 130.329 181.195C130.329 180.542 130.122 180.003 129.697 179.588C129.272 179.163 128.743 178.956 128.121 178.956C127.499 178.956 126.971 179.163 126.546 179.588C126.131 180.013 125.924 180.552 125.924 181.195C125.913 181.848 126.121 182.387 126.546 182.812Z" fill="white"/>
<path d="M140.851 184.253C140.011 185.082 138.995 185.497 137.793 185.497C136.591 185.497 135.564 185.082 134.735 184.253C133.906 183.424 133.491 182.408 133.491 181.195C133.491 179.993 133.906 178.977 134.735 178.137C135.564 177.308 136.58 176.893 137.793 176.893C138.995 176.893 140.022 177.308 140.851 178.137C141.691 178.966 142.105 179.982 142.105 181.195C142.105 182.408 141.691 183.424 140.851 184.253ZM136.217 182.812C136.632 183.237 137.161 183.445 137.793 183.445C138.425 183.445 138.954 183.237 139.369 182.812C139.794 182.387 140.001 181.848 140.001 181.195C140.001 180.542 139.794 180.003 139.369 179.588C138.944 179.163 138.415 178.956 137.793 178.956C137.171 178.956 136.642 179.163 136.217 179.588C135.803 180.013 135.595 180.552 135.595 181.195C135.595 181.848 135.803 182.387 136.217 182.812Z" fill="white"/>
<path d="M145.692 178.531C145.889 178.013 146.21 177.619 146.656 177.36C147.102 177.101 147.609 176.966 148.159 176.966V179.309C147.516 179.236 146.946 179.36 146.438 179.702C145.93 180.044 145.681 180.594 145.681 181.382V185.279H143.577V177.132H145.681V178.531H145.692Z" fill="white"/>
<path d="M255.674 162.226H259.136V163.158H254.689V155.705H259.085V156.638H255.674V158.929H258.815V159.852H255.674V162.226Z" fill="white"/>
<path d="M264.848 163.159H263.759L262.267 161.148L260.774 163.159H259.686L261.728 160.422L259.81 157.841H260.909L262.277 159.686L263.656 157.841H264.744L262.826 160.422L264.848 163.159Z" fill="white"/>
<path d="M268.652 157.696C269.399 157.696 270.031 157.965 270.56 158.515C271.088 159.054 271.347 159.717 271.347 160.505C271.347 161.282 271.088 161.946 270.56 162.495C270.031 163.034 269.399 163.314 268.652 163.314C267.771 163.314 267.097 162.962 266.641 162.257V165.304H265.719V157.851H266.641V158.763C267.097 158.048 267.771 157.696 268.652 157.696ZM268.538 162.402C269.067 162.402 269.513 162.215 269.875 161.853C270.238 161.49 270.414 161.034 270.414 160.495C270.414 159.956 270.238 159.499 269.875 159.137C269.513 158.774 269.067 158.587 268.538 158.587C267.999 158.587 267.543 158.774 267.191 159.137C266.828 159.499 266.652 159.956 266.652 160.495C266.652 161.034 266.828 161.49 267.191 161.853C267.543 162.226 267.999 162.402 268.538 162.402Z" fill="white"/>
<path d="M272.923 156.866C272.747 156.866 272.591 156.804 272.477 156.69C272.363 156.576 272.301 156.421 272.301 156.255C272.301 156.089 272.363 155.934 272.477 155.809C272.591 155.685 272.747 155.623 272.923 155.623C273.089 155.623 273.234 155.685 273.358 155.809C273.482 155.934 273.534 156.079 273.534 156.255C273.534 156.431 273.472 156.576 273.358 156.69C273.244 156.804 273.089 156.866 272.923 156.866ZM272.456 163.159V157.83H273.379V163.159H272.456Z" fill="white"/>
<path d="M275.721 158.732C276.022 158.069 276.582 157.737 277.38 157.737V158.701C276.924 158.681 276.54 158.805 276.209 159.064C275.887 159.323 275.721 159.748 275.721 160.329V163.148H274.799V157.82H275.721V158.732Z" fill="white"/>
<path d="M282.117 157.841H283.112L280.935 163.49C280.707 164.092 280.386 164.558 279.982 164.869C279.577 165.18 279.101 165.325 278.572 165.294V164.434C279.225 164.485 279.702 164.123 280.002 163.345L280.106 163.148L277.784 157.841H278.779L280.552 161.925L282.117 157.841Z" fill="white"/>
<path d="M289.55 155.705C290.566 155.705 291.405 156.068 292.079 156.783C292.753 157.499 293.085 158.39 293.085 159.427C293.085 160.474 292.753 161.355 292.079 162.07C291.405 162.796 290.566 163.148 289.55 163.148H286.647V155.695H289.55V155.705ZM289.55 162.226C290.307 162.226 290.929 161.956 291.416 161.427C291.903 160.899 292.141 160.235 292.141 159.437C292.141 158.639 291.903 157.976 291.416 157.447C290.929 156.918 290.317 156.649 289.55 156.649H287.632V162.226H289.55Z" fill="white"/>
<path d="M298.6 157.841H299.522V163.169H298.6V162.257C298.133 162.962 297.47 163.314 296.589 163.314C295.842 163.314 295.21 163.045 294.681 162.495C294.153 161.956 293.894 161.293 293.894 160.505C293.894 159.727 294.153 159.064 294.681 158.515C295.21 157.976 295.842 157.696 296.589 157.696C297.47 157.696 298.144 158.048 298.6 158.753V157.841ZM296.713 162.402C297.252 162.402 297.708 162.215 298.061 161.853C298.423 161.49 298.6 161.034 298.6 160.495C298.6 159.956 298.423 159.499 298.061 159.137C297.698 158.774 297.252 158.587 296.713 158.587C296.184 158.587 295.728 158.774 295.376 159.137C295.013 159.499 294.837 159.956 294.837 160.495C294.837 161.034 295.013 161.49 295.376 161.853C295.728 162.226 296.174 162.402 296.713 162.402Z" fill="white"/>
<path d="M303.834 158.732H302.414V161.614C302.414 161.873 302.466 162.06 302.569 162.174C302.673 162.288 302.828 162.34 303.046 162.34C303.264 162.34 303.523 162.34 303.834 162.329V163.159C303.025 163.262 302.435 163.2 302.061 162.962C301.688 162.723 301.502 162.277 301.502 161.614V158.732H300.444V157.841H301.502V156.628L302.424 156.348V157.841H303.844V158.732H303.834Z" fill="white"/>
<path d="M305.316 160.92C305.41 161.396 305.627 161.77 305.969 162.029C306.311 162.288 306.736 162.423 307.244 162.423C307.949 162.423 308.457 162.163 308.779 161.645L309.566 162.091C309.048 162.889 308.271 163.293 307.224 163.293C306.374 163.293 305.69 163.034 305.161 162.495C304.632 161.967 304.373 161.293 304.373 160.484C304.373 159.686 304.632 159.012 305.15 158.484C305.669 157.955 306.343 157.685 307.161 157.685C307.939 157.685 308.582 157.965 309.069 158.515C309.566 159.064 309.805 159.727 309.805 160.505C309.805 160.64 309.794 160.774 309.774 160.92H305.316ZM307.151 158.567C306.654 158.567 306.239 158.712 305.918 158.992C305.596 159.271 305.389 159.645 305.316 160.111H308.872C308.789 159.603 308.592 159.22 308.271 158.96C307.949 158.701 307.576 158.567 307.151 158.567Z" fill="white"/>
<path d="M262.256 183.869C261.489 184.947 260.401 185.486 259.012 185.486C257.623 185.486 256.545 184.947 255.767 183.869C255 182.791 254.606 181.361 254.606 179.567C254.606 177.774 254.99 176.344 255.767 175.266C256.534 174.188 257.623 173.649 259.012 173.649C260.401 173.649 261.479 174.188 262.256 175.266C263.024 176.344 263.417 177.774 263.417 179.567C263.417 181.361 263.034 182.791 262.256 183.869ZM256.887 182.843C257.385 183.61 258.1 184.004 259.022 184.004C259.945 184.004 260.66 183.621 261.168 182.843C261.676 182.076 261.925 180.977 261.925 179.567C261.925 178.158 261.676 177.059 261.168 176.281C260.66 175.504 259.945 175.121 259.022 175.121C258.1 175.121 257.385 175.504 256.887 176.281C256.389 177.049 256.141 178.147 256.141 179.567C256.141 180.977 256.389 182.076 256.887 182.843Z" fill="white"/>
<path d="M264.526 185.269V184.035L268.548 179.93C269.626 178.852 270.165 177.93 270.165 177.163C270.165 176.52 269.968 176.022 269.575 175.66C269.181 175.297 268.704 175.121 268.144 175.121C267.066 175.121 266.289 175.628 265.801 176.655L264.526 175.908C264.889 175.172 265.387 174.613 266.019 174.229C266.651 173.846 267.356 173.659 268.134 173.659C269.087 173.659 269.917 173.97 270.621 174.602C271.326 175.235 271.679 176.074 271.679 177.142C271.679 178.292 271.005 179.547 269.647 180.905L266.734 183.797H271.886V185.258H264.526V185.269Z" fill="white"/>
<path d="M273.991 186.875L273.141 186.896L279.661 172.26L280.511 172.239L273.991 186.875Z" fill="white"/>
<path d="M286.263 178.541C287.134 178.707 287.849 179.08 288.399 179.671C288.959 180.262 289.228 180.998 289.228 181.9C289.228 183.009 288.845 183.88 288.088 184.522C287.331 185.165 286.409 185.486 285.32 185.486C284.449 185.486 283.682 185.289 283.009 184.895C282.335 184.502 281.858 183.931 281.578 183.175L282.853 182.428C283.185 183.486 284.014 184.004 285.331 184.004C286.035 184.004 286.616 183.817 287.062 183.455C287.507 183.092 287.725 182.574 287.725 181.91C287.725 181.247 287.507 180.728 287.062 180.355C286.616 179.982 286.035 179.795 285.331 179.795H284.937L284.335 178.863L286.979 175.297H281.91V173.877H288.751L288.741 175.203L286.263 178.541Z" fill="white"/>
<path d="M298.206 183.869C297.439 184.947 296.35 185.486 294.961 185.486C293.572 185.486 292.494 184.947 291.717 183.869C290.95 182.791 290.556 181.361 290.556 179.567C290.556 177.774 290.939 176.344 291.717 175.266C292.484 174.188 293.572 173.649 294.961 173.649C296.35 173.649 297.428 174.188 298.206 175.266C298.973 176.344 299.367 177.774 299.367 179.567C299.367 181.361 298.983 182.791 298.206 183.869ZM292.836 182.843C293.334 183.61 294.049 184.004 294.972 184.004C295.894 184.004 296.609 183.621 297.117 182.843C297.625 182.076 297.874 180.977 297.874 179.567C297.874 178.158 297.625 177.059 297.117 176.281C296.609 175.504 295.894 175.121 294.972 175.121C294.049 175.121 293.334 175.504 292.836 176.281C292.339 177.049 292.09 178.147 292.09 179.567C292.079 180.977 292.328 182.076 292.836 182.843Z" fill="white"/>
<path d="M321.196 34.083H317.734C316.655 34.083 315.857 34.3836 315.38 35.4409L308.726 50.5336H313.432C313.432 50.5336 314.209 48.5019 314.375 48.0665H320.118C320.252 48.647 320.657 50.5336 320.657 50.5336H324.824L321.196 34.083ZM315.671 44.6976C316.044 43.7543 317.443 40.0952 317.443 40.0952C317.443 40.0848 317.827 39.1312 318.045 38.53L318.345 39.9501C318.345 39.9501 319.205 43.8684 319.382 44.708H315.671V44.6976Z" fill="white"/>
<path d="M302.745 38.6438C302.734 39.4213 303.698 39.9292 305.274 40.6859C307.855 41.8676 309.058 43.2774 309.037 45.1639C309.006 48.5743 305.948 50.7822 301.221 50.7822C299.21 50.7615 297.272 50.3572 296.225 49.9011L296.857 46.2109L297.437 46.4804C298.899 47.092 299.863 47.3408 301.656 47.3408C302.942 47.3408 304.32 46.8328 304.331 45.7341C304.341 45.0084 303.75 44.4902 302.009 43.6816C300.298 42.8938 298.049 41.5773 298.07 39.2139C298.09 36.0212 301.221 33.7822 305.647 33.7822C307.389 33.7822 308.788 34.145 309.669 34.4767L309.058 38.0426L308.653 37.856C307.824 37.5243 306.756 37.203 305.295 37.2237C303.564 37.2237 302.745 37.9597 302.745 38.6438Z" fill="white"/>
<path d="M296.225 34.0725L293.416 50.5231H288.938L291.736 34.0725H296.225Z" fill="white"/>
<path d="M280.116 42.5415C278.624 38.7372 275.047 35.5757 269.626 34.2592L269.688 33.9275H276.644C277.587 33.9586 278.344 34.2592 278.603 35.2647L280.116 42.5415Z" fill="white"/>
<path d="M289.933 34.083L282.863 50.5129H278.126L274.114 36.7989C276.996 38.644 279.453 41.5775 280.323 43.6196L280.8 45.3196L285.195 34.0934H289.933V34.083Z" fill="white"/>
<path d="M58.6085 142.479H30.6207C28.8274 142.479 27.3555 141.007 27.3555 139.213V118.492C27.3555 116.699 28.8274 115.227 30.6207 115.227H58.6085C60.4018 115.227 61.8738 116.699 61.8738 118.492V139.213C61.8738 141.007 60.4018 142.479 58.6085 142.479Z" fill="#F6C859"/>
<path d="M40.6342 138.84C40.4891 138.84 40.344 138.757 40.2818 138.623C40.1781 138.426 40.261 138.187 40.458 138.083C41.0385 137.783 41.8263 137.233 42.2824 136.269C42.8629 135.046 42.7074 133.719 42.469 133.605C42.4068 133.574 42.1683 133.699 42.0232 133.771C41.6501 133.968 41.1214 134.227 40.5202 134.02C39.9293 133.813 39.6391 133.284 39.5043 133.035C38.6025 131.377 38.3226 127.065 39.2763 124.919C39.5976 124.204 40.0226 123.789 40.5616 123.665C41.111 123.54 41.5568 123.768 41.9092 123.955C42.1994 124.11 42.3549 124.173 42.4379 124.121C42.811 123.893 42.8007 122.524 42.2824 121.436C41.8263 120.472 41.0385 119.923 40.458 119.622C40.261 119.518 40.1885 119.28 40.2818 119.083C40.3854 118.886 40.6238 118.813 40.8208 118.907C41.5049 119.259 42.4482 119.923 42.9976 121.094C43.547 122.244 43.8061 124.224 42.8421 124.805C42.3549 125.095 41.8988 124.857 41.5257 124.67C41.2458 124.525 40.9866 124.39 40.7275 124.452C40.3751 124.535 40.1366 124.94 39.9915 125.261C39.1519 127.127 39.3903 131.211 40.1885 132.673C40.3232 132.921 40.4891 133.191 40.769 133.284C41.0385 133.377 41.2872 133.263 41.6501 133.077C42.0025 132.901 42.3964 132.693 42.811 132.901C43.7025 133.336 43.6507 135.264 42.9976 136.632C42.4482 137.793 41.5049 138.467 40.8208 138.819C40.7586 138.83 40.6964 138.84 40.6342 138.84Z" fill="#7D662D"/>
<path d="M39.4419 125.644H32.248C32.0303 125.644 31.8438 125.468 31.8438 125.24C31.8438 125.012 32.02 124.836 32.248 124.836H39.4419C39.6596 124.836 39.8462 125.012 39.8462 125.24C39.8462 125.468 39.6596 125.644 39.4419 125.644Z" fill="#7D662D"/>
<path d="M39.4419 132.849H32.248C32.0303 132.849 31.8438 132.672 31.8438 132.444C31.8438 132.216 32.02 132.04 32.248 132.04H39.4419C39.6596 132.04 39.8462 132.216 39.8462 132.444C39.8462 132.672 39.6596 132.849 39.4419 132.849Z" fill="#7D662D"/>
<path d="M49.0301 138.84C48.9679 138.84 48.9057 138.83 48.8435 138.799C48.1594 138.446 47.2161 137.783 46.6667 136.611C46.0136 135.243 45.9618 133.315 46.8533 132.88C47.2679 132.683 47.6618 132.88 48.0142 133.056C48.3771 133.243 48.6258 133.357 48.8953 133.263C49.196 133.16 49.3722 132.838 49.4758 132.652C50.274 131.19 50.5124 127.116 49.6728 125.24C49.5277 124.919 49.2789 124.515 48.9368 124.432C48.7191 124.38 48.5844 124.162 48.6362 123.955C48.688 123.737 48.9057 123.613 49.113 123.654C49.6521 123.779 50.0771 124.204 50.3984 124.919C51.3521 127.065 51.0825 131.377 50.1703 133.035C50.0356 133.284 49.7453 133.813 49.1545 134.02C48.5533 134.227 48.0246 133.968 47.6514 133.771C47.5063 133.699 47.2575 133.574 47.2057 133.605C46.9673 133.719 46.8118 135.046 47.3923 136.269C47.8484 137.233 48.6362 137.783 49.2167 138.083C49.4136 138.187 49.4862 138.426 49.3929 138.622C49.3203 138.757 49.1752 138.84 49.0301 138.84Z" fill="#7D662D"/>
<path d="M47.4341 124.048C47.2682 124.048 47.1127 123.945 47.0505 123.779C46.1902 121.208 48.2011 119.228 48.8438 118.896C49.0408 118.793 49.2792 118.876 49.3828 119.073C49.4865 119.27 49.4036 119.508 49.2066 119.612C48.9164 119.757 47.0713 121.343 47.8072 123.53C47.8798 123.737 47.7658 123.965 47.5585 124.038C47.517 124.038 47.4755 124.048 47.4341 124.048Z" fill="#7D662D"/>
<path d="M57.4263 125.644H50.2324C50.0147 125.644 49.8281 125.468 49.8281 125.24C49.8281 125.012 50.0043 124.836 50.2324 124.836H57.4263C57.644 124.836 57.8306 125.012 57.8306 125.24C57.8306 125.468 57.6543 125.644 57.4263 125.644Z" fill="#7D662D"/>
<path d="M57.4263 132.849H50.2324C50.0147 132.849 49.8281 132.672 49.8281 132.444C49.8281 132.216 50.0043 132.04 50.2324 132.04H57.4263C57.644 132.04 57.8306 132.216 57.8306 132.444C57.8306 132.672 57.6543 132.849 57.4263 132.849Z" fill="#7D662D"/>
<defs>
<linearGradient id="paint0_linear_34_2689" x1="38.242" y1="247.473" x2="311.681" y2="-25.9669" gradientUnits="userSpaceOnUse">
<stop stop-color="#1B1464"/>
<stop offset="1" stop-color="#83EFFF"/>
</linearGradient>
<linearGradient id="paint1_linear_34_2689" x1="232.73" y1="112.485" x2="341.432" y2="3.78344" gradientUnits="userSpaceOnUse">
<stop stop-color="#83EFFF"/>
<stop offset="1" stop-color="#1B1464"/>
</linearGradient>
<linearGradient id="paint2_linear_34_2689" x1="59.9137" y1="269.14" x2="305.377" y2="23.6761" gradientUnits="userSpaceOnUse">
<stop stop-color="#1B1464"/>
<stop offset="1" stop-color="#83EFFF"/>
</linearGradient>
<linearGradient id="paint3_linear_34_2689" x1="-12.1185" y1="90.2302" x2="92.9518" y2="-14.8401" gradientUnits="userSpaceOnUse">
<stop stop-color="#1B1464"/>
<stop offset="1" stop-color="#83EFFF"/>
</linearGradient>
<linearGradient id="paint4_linear_34_2689" x1="149.36" y1="258.296" x2="222.95" y2="184.706" gradientUnits="userSpaceOnUse">
<stop stop-color="#02B6FD"/>
<stop offset="1" stop-color="#83EFFF"/>
</linearGradient>
<linearGradient id="paint5_linear_34_2689" x1="64.7239" y1="273.954" x2="245.244" y2="93.4347" gradientUnits="userSpaceOnUse">
<stop stop-color="#1B1464"/>
<stop offset="1" stop-color="#83EFFF"/>
</linearGradient>
<linearGradient id="paint6_linear_34_2689" x1="38.242" y1="247.473" x2="311.681" y2="-25.9669" gradientUnits="userSpaceOnUse">
<stop stop-color="#02CAFD"/>
<stop offset="1" stop-color="#83F8A6"/>
</linearGradient>
</defs>
</svg>
