<svg width="354" height="224" viewBox="0 0 354 224" fill="none" xmlns="http://www.w3.org/2000/svg">
<path d="M353.611 21.0976V202.158C353.611 213.805 344.16 223.255 332.513 223.255H22.0175C10.3703 223.266 0.919922 213.815 0.919922 202.168V21.0976C0.919922 9.4504 10.3703 0 22.0175 0H332.513C336.679 0 340.575 1.21239 343.849 3.31593C349.735 7.04635 353.611 13.616 353.611 21.0976Z" fill="url(#paint0_linear_36_450)"/>
<path d="M36.6588 94.4315V96.2138L34.1304 96.0998L35.6019 98.1308L34.0164 99.0738L32.7626 96.7941L31.5088 99.0738L29.9544 98.1308L31.4051 96.0998L28.8975 96.2138V94.4315L31.4051 94.5662L29.9544 92.5041L31.5088 91.5612L32.7626 93.8409L34.0164 91.5612L35.6019 92.5041L34.1304 94.5662L36.6588 94.4315Z" fill="white"/>
<path d="M49.7047 94.4315V96.2138L47.1763 96.0998L48.6478 98.1308L47.0623 99.0738L45.8085 96.7941L44.5547 99.0738L43.0003 98.1308L44.451 96.0998L41.9434 96.2138V94.4315L44.451 94.5662L43.0003 92.5041L44.5547 91.5612L45.8085 93.8409L47.0623 91.5612L48.6478 92.5041L47.1763 94.5662L49.7047 94.4315Z" fill="white"/>
<path d="M62.7506 94.4315V96.2138L60.2222 96.0998L61.6937 98.1308L60.1082 99.0738L58.8544 96.7941L57.6006 99.0738L56.0462 98.1308L57.4969 96.0998L54.9893 96.2138V94.4315L57.4969 94.5662L56.0462 92.5041L57.6006 91.5612L58.8544 93.8409L60.1082 91.5612L61.6937 92.5041L60.2222 94.5662L62.7506 94.4315Z" fill="white"/>
<path d="M75.7975 94.4315V96.2138L73.2691 96.0998L74.7405 98.1308L73.1551 99.0738L71.9013 96.7941L70.6474 99.0738L69.0931 98.1308L70.5438 96.0998L68.0361 96.2138V94.4315L70.5438 94.5662L69.0931 92.5041L70.6474 91.5612L71.9013 93.8409L73.1551 91.5612L74.7405 92.5041L73.2691 94.5662L75.7975 94.4315Z" fill="white"/>
<path d="M97.8893 94.4315V96.2138L95.3609 96.0998L96.8323 98.1308L95.2469 99.0738L93.9931 96.7941L92.7392 99.0738L91.1849 98.1308L92.6356 96.0998L90.1279 96.2138V94.4315L92.6356 94.5662L91.1849 92.5041L92.7392 91.5612L93.9931 93.8409L95.2469 91.5612L96.8323 92.5041L95.3609 94.5662L97.8893 94.4315Z" fill="white"/>
<path d="M110.935 94.4315V96.2138L108.407 96.0998L109.878 98.1308L108.293 99.0738L107.039 96.7941L105.785 99.0738L104.231 98.1308L105.681 96.0998L103.174 96.2138V94.4315L105.681 94.5662L104.231 92.5041L105.785 91.5612L107.039 93.8409L108.293 91.5612L109.878 92.5041L108.407 94.5662L110.935 94.4315Z" fill="white"/>
<path d="M123.992 94.4315V96.2138L121.463 96.0998L122.935 98.1308L121.349 99.0738L120.096 96.7941L118.842 99.0738L117.287 98.1308L118.738 96.0998L116.23 96.2138V94.4315L118.738 94.5662L117.287 92.5041L118.842 91.5612L120.096 93.8409L121.349 91.5612L122.935 92.5041L121.463 94.5662L123.992 94.4315Z" fill="white"/>
<path d="M137.039 94.4315V96.2138L134.51 96.0998L135.982 98.1308L134.396 99.0738L133.142 96.7941L131.889 99.0738L130.334 98.1308L131.785 96.0998L129.277 96.2138V94.4315L131.785 94.5662L130.334 92.5041L131.889 91.5612L133.142 93.8409L134.396 91.5612L135.982 92.5041L134.51 94.5662L137.039 94.4315Z" fill="white"/>
<path d="M159.13 94.4315V96.2138L156.602 96.0998L158.074 98.1308L156.488 99.0738L155.234 96.7941L153.98 99.0738L152.426 98.1308L153.877 96.0998L151.369 96.2138V94.4315L153.877 94.5662L152.426 92.5041L153.98 91.5612L155.234 93.8409L156.488 91.5612L158.074 92.5041L156.602 94.5662L159.13 94.4315Z" fill="white"/>
<path d="M172.176 94.4315V96.2138L169.648 96.0998L171.119 98.1308L169.534 99.0738L168.28 96.7941L167.026 99.0738L165.472 98.1308L166.923 96.0998L164.415 96.2138V94.4315L166.923 94.5662L165.472 92.5041L167.026 91.5612L168.28 93.8409L169.534 91.5612L171.119 92.5041L169.648 94.5662L172.176 94.4315Z" fill="white"/>
<path d="M185.223 94.4315V96.2138L182.695 96.0998L184.166 98.1308L182.581 99.0738L181.327 96.7941L180.073 99.0738L178.519 98.1308L179.97 96.0998L177.462 96.2138V94.4315L179.97 94.5662L178.519 92.5041L180.073 91.5612L181.327 93.8409L182.581 91.5612L184.166 92.5041L182.695 94.5662L185.223 94.4315Z" fill="white"/>
<path d="M198.269 94.4315V96.2138L195.741 96.0998L197.212 98.1308L195.627 99.0738L194.373 96.7941L193.119 99.0738L191.565 98.1308L193.015 96.0998L190.508 96.2138V94.4315L193.015 94.5662L191.565 92.5041L193.119 91.5612L194.373 93.8409L195.627 91.5612L197.212 92.5041L195.741 94.5662L198.269 94.4315Z" fill="white"/>
<path d="M211.988 111.405V109.291L218.858 102.276C220.693 100.442 221.615 98.8666 221.615 97.5506C221.615 96.4522 221.283 95.6025 220.61 94.9911C219.947 94.3797 219.128 94.0688 218.164 94.0688C216.33 94.0688 214.993 94.9393 214.154 96.6801L211.988 95.4056C212.6 94.1414 213.449 93.188 214.537 92.5352C215.625 91.8824 216.827 91.5612 218.143 91.5612C219.77 91.5612 221.19 92.1 222.402 93.1777C223.604 94.2554 224.216 95.6957 224.216 97.5195C224.216 99.4883 223.055 101.633 220.744 103.954L215.781 108.908H224.589V111.415H211.988V111.405Z" fill="white"/>
<path d="M236.236 99.9028C237.718 100.183 238.941 100.825 239.884 101.83C240.827 102.835 241.303 104.1 241.303 105.643C241.303 107.54 240.65 109.032 239.355 110.12C238.06 111.218 236.485 111.757 234.63 111.757C233.148 111.757 231.832 111.415 230.682 110.742C229.532 110.068 228.713 109.084 228.236 107.809L230.402 106.535C230.972 108.338 232.392 109.229 234.63 109.229C235.832 109.229 236.816 108.918 237.583 108.286C238.34 107.654 238.723 106.773 238.723 105.643C238.723 104.514 238.34 103.623 237.583 102.991C236.827 102.348 235.842 102.027 234.63 102.027H233.967L232.941 100.442L237.448 94.3486H228.796V91.9238H240.485L240.474 94.1932L236.236 99.9028Z" fill="white"/>
<path d="M260.536 105.281V107.695H258.173V111.395H255.582V107.695H245.655V105.281L252.639 91.9238H255.417L248.432 105.281H255.582V99.7681H258.173V105.281H260.536Z" fill="white"/>
<path d="M270.712 99.5194C272.546 99.5194 274.1 100.058 275.375 101.146C276.649 102.234 277.282 103.726 277.282 105.643C277.282 107.54 276.629 109.032 275.333 110.12C274.038 111.218 272.463 111.757 270.608 111.757C269.126 111.757 267.8 111.405 266.629 110.69C265.458 109.975 264.64 108.939 264.184 107.592L266.38 106.338C266.639 107.281 267.137 108.006 267.883 108.493C268.629 108.98 269.531 109.229 270.608 109.229C271.831 109.229 272.826 108.918 273.582 108.286C274.339 107.654 274.722 106.773 274.722 105.643C274.722 104.514 274.339 103.623 273.582 102.991C272.826 102.348 271.852 102.027 270.66 102.027H265.158L265.852 91.9238H276.535V94.3486H268.215L267.873 99.5194H270.712Z" fill="white"/>
<path d="M30.5347 164.594C29.3949 164.594 28.4623 164.221 27.7162 163.465C26.9805 162.719 26.6074 161.786 26.6074 160.698C26.6074 159.61 26.9805 158.678 27.7162 157.931C28.4519 157.185 29.3949 156.802 30.5347 156.802C31.2186 156.802 31.8507 156.968 32.431 157.299C33.0113 157.631 33.4569 158.077 33.7781 158.626L32.9077 159.134C32.6901 158.719 32.3689 158.387 31.944 158.139C31.5191 157.89 31.0425 157.766 30.5347 157.766C29.6643 157.766 28.9597 158.045 28.4105 158.605C27.8613 159.165 27.5918 159.859 27.5918 160.698C27.5918 161.527 27.8613 162.221 28.4105 162.781C28.9597 163.341 29.6643 163.62 30.5347 163.62C31.0528 163.62 31.5191 163.496 31.944 163.247C32.3689 162.999 32.6901 162.677 32.9077 162.263L33.7781 162.76C33.4673 163.32 33.0113 163.765 32.4414 164.097C31.8611 164.429 31.229 164.594 30.5347 164.594Z" fill="white"/>
<path d="M39.2284 159.092H40.161V164.46H39.2284V163.538C38.762 164.242 38.0885 164.605 37.1973 164.605C36.4513 164.605 35.8088 164.335 35.2803 163.786C34.7518 163.237 34.4824 162.574 34.4824 161.786C34.4824 160.999 34.7518 160.336 35.2803 159.786C35.8088 159.237 36.4513 158.968 37.1973 158.968C38.0885 158.968 38.762 159.32 39.2284 160.035V159.092ZM37.3217 163.693C37.8605 163.693 38.3165 163.506 38.6895 163.144C39.0626 162.781 39.2387 162.315 39.2387 161.776C39.2387 161.237 39.0522 160.781 38.6895 160.408C38.3268 160.035 37.8709 159.859 37.3217 159.859C36.7829 159.859 36.3373 160.045 35.9746 160.408C35.6119 160.781 35.4254 161.237 35.4254 161.776C35.4254 162.325 35.6119 162.781 35.9746 163.144C36.3373 163.517 36.7829 163.693 37.3217 163.693Z" fill="white"/>
<path d="M42.5137 159.994C42.8245 159.33 43.3737 158.999 44.1923 158.999V159.973C43.7364 159.952 43.3426 160.076 43.011 160.336C42.6795 160.605 42.5137 161.03 42.5137 161.61V164.46H41.5811V159.092H42.5137V159.994Z" fill="white"/>
<path d="M49.2596 156.947H50.1922V164.46H49.2596V163.537C48.7933 164.242 48.1197 164.605 47.2286 164.605C46.4825 164.605 45.84 164.335 45.3116 163.786C44.7831 163.237 44.5137 162.574 44.5137 161.786C44.5137 160.999 44.7831 160.335 45.3116 159.786C45.84 159.237 46.4825 158.968 47.2286 158.968C48.1197 158.968 48.7933 159.32 49.2596 160.035V156.947ZM47.3426 163.693C47.8814 163.693 48.3374 163.506 48.7104 163.144C49.0834 162.781 49.2596 162.315 49.2596 161.776C49.2596 161.237 49.0731 160.781 48.7104 160.408C48.3477 160.035 47.8918 159.859 47.3426 159.859C46.8037 159.859 46.3582 160.045 45.9955 160.408C45.6328 160.781 45.4463 161.237 45.4463 161.776C45.4463 162.325 45.6328 162.781 45.9955 163.144C46.3582 163.517 46.8141 163.693 47.3426 163.693Z" fill="white"/>
<path d="M59.031 156.947H60.0154V164.46H59.031V161.082H55.3835V164.46H54.3887V156.947H55.3835V160.139H59.031V156.947Z" fill="white"/>
<path d="M66.0671 163.786C65.5179 164.325 64.8444 164.605 64.0568 164.605C63.2693 164.605 62.6061 164.335 62.0569 163.786C61.5077 163.237 61.2383 162.574 61.2383 161.776C61.2383 160.978 61.5077 160.315 62.0569 159.766C62.6061 159.227 63.2693 158.947 64.0568 158.947C64.8444 158.947 65.5179 159.216 66.0671 159.766C66.6163 160.315 66.8961 160.978 66.8961 161.776C66.8857 162.574 66.6163 163.237 66.0671 163.786ZM64.0568 163.683C64.5957 163.683 65.0412 163.496 65.4143 163.133C65.777 162.771 65.9635 162.315 65.9635 161.766C65.9635 161.227 65.777 160.771 65.4143 160.398C65.0516 160.035 64.5957 159.849 64.0568 159.849C63.5283 159.849 63.0828 160.035 62.7201 160.398C62.3574 160.76 62.1709 161.216 62.1709 161.766C62.1709 162.315 62.3574 162.76 62.7201 163.133C63.0828 163.506 63.5283 163.683 64.0568 163.683Z" fill="white"/>
<path d="M67.9941 164.46V156.626H68.9267V164.46H67.9941Z" fill="white"/>
<path d="M74.8026 156.947H75.7352V164.46H74.8026V163.537C74.3363 164.242 73.6627 164.605 72.7716 164.605C72.0255 164.605 71.383 164.335 70.8545 163.786C70.3261 163.237 70.0566 162.574 70.0566 161.786C70.0566 160.999 70.3261 160.335 70.8545 159.786C71.383 159.237 72.0255 158.968 72.7716 158.968C73.6627 158.968 74.3363 159.32 74.8026 160.035V156.947ZM72.8855 163.693C73.4244 163.693 73.8803 163.506 74.2534 163.144C74.6264 162.781 74.8026 162.315 74.8026 161.776C74.8026 161.237 74.616 160.781 74.2534 160.408C73.8907 160.035 73.4347 159.859 72.8855 159.859C72.3467 159.859 71.9011 160.045 71.5384 160.408C71.1758 160.781 70.9892 161.237 70.9892 161.776C70.9892 162.325 71.1758 162.781 71.5384 163.144C71.9011 163.517 72.3571 163.693 72.8855 163.693Z" fill="white"/>
<path d="M77.8072 162.201C77.9005 162.677 78.1181 163.05 78.4704 163.32C78.8124 163.579 79.2476 163.714 79.7553 163.714C80.46 163.714 80.9781 163.455 81.2993 162.926L82.0972 163.372C81.5791 164.18 80.7916 164.584 79.7346 164.584C78.8849 164.584 78.1906 164.315 77.6622 163.786C77.1337 163.258 76.8643 162.574 76.8643 161.766C76.8643 160.957 77.1233 160.284 77.6518 159.745C78.1699 159.206 78.8538 158.937 79.6828 158.937C80.4703 158.937 81.1128 159.216 81.6102 159.766C82.1076 160.325 82.3563 160.988 82.3563 161.766C82.3563 161.9 82.3459 162.045 82.3252 162.18H77.8072V162.201ZM79.6621 159.828C79.1647 159.828 78.7502 159.973 78.4186 160.253C78.087 160.532 77.8901 160.916 77.8072 161.382H81.3926C81.3097 160.874 81.1128 160.491 80.7916 160.222C80.4703 159.963 80.0869 159.828 79.6621 159.828Z" fill="white"/>
<path d="M84.3457 159.994C84.6566 159.33 85.2058 158.999 86.0244 158.999V159.973C85.5684 159.952 85.1747 160.076 84.8431 160.336C84.5115 160.605 84.3457 161.03 84.3457 161.61V164.46H83.4131V159.092H84.3457V159.994Z" fill="white"/>
<path d="M92.2832 158.957C92.9153 158.957 93.4127 159.154 93.7961 159.558C94.1795 159.952 94.366 160.491 94.366 161.175V164.47H93.4334V161.227C93.4334 160.792 93.3195 160.45 93.0811 160.211C92.8428 159.973 92.5216 159.849 92.1071 159.849C91.6408 159.849 91.2677 159.994 90.9776 160.284C90.6874 160.574 90.5527 161.019 90.5527 161.621V164.47H89.6201V159.102H90.5527V159.88C90.9258 159.258 91.5061 158.957 92.2832 158.957Z" fill="white"/>
<path d="M100.107 159.092H101.04V164.46H100.107V163.538C99.641 164.242 98.9674 164.605 98.0762 164.605C97.3302 164.605 96.6877 164.335 96.1592 163.786C95.6308 163.237 95.3613 162.574 95.3613 161.786C95.3613 160.999 95.6308 160.336 96.1592 159.786C96.6877 159.237 97.3302 158.968 98.0762 158.968C98.9674 158.968 99.641 159.32 100.107 160.035V159.092ZM98.2006 163.693C98.7394 163.693 99.1954 163.506 99.5684 163.144C99.9415 162.781 100.118 162.315 100.118 161.776C100.118 161.237 99.9311 160.781 99.5684 160.408C99.2057 160.035 98.7498 159.859 98.2006 159.859C97.6618 159.859 97.2162 160.045 96.8535 160.408C96.4908 160.781 96.3043 161.237 96.3043 161.776C96.3043 162.325 96.4908 162.781 96.8535 163.144C97.2058 163.517 97.6618 163.693 98.2006 163.693Z" fill="white"/>
<path d="M108.252 158.957C108.853 158.957 109.34 159.154 109.713 159.538C110.086 159.931 110.273 160.46 110.273 161.123V164.46H109.34V161.154C109.34 160.74 109.237 160.418 109.019 160.191C108.801 159.963 108.522 159.849 108.159 159.849C107.755 159.849 107.433 159.983 107.195 160.253C106.957 160.522 106.832 160.926 106.832 161.486V164.47H105.9V161.165C105.9 160.75 105.796 160.429 105.589 160.201C105.382 159.973 105.112 159.859 104.76 159.859C104.366 159.859 104.035 159.994 103.776 160.263C103.517 160.532 103.382 160.947 103.382 161.486V164.47H102.449V159.102H103.382V159.817C103.744 159.248 104.283 158.957 104.978 158.957C105.703 158.957 106.231 159.258 106.553 159.869C106.946 159.258 107.506 158.957 108.252 158.957Z" fill="white"/>
<path d="M112.22 162.201C112.314 162.677 112.531 163.05 112.884 163.32C113.225 163.579 113.661 163.714 114.168 163.714C114.873 163.714 115.391 163.455 115.712 162.926L116.51 163.372C115.992 164.18 115.205 164.584 114.148 164.584C113.298 164.584 112.604 164.315 112.075 163.786C111.547 163.258 111.277 162.574 111.277 161.766C111.277 160.957 111.536 160.284 112.065 159.745C112.583 159.206 113.267 158.937 114.096 158.937C114.883 158.937 115.526 159.216 116.023 159.766C116.521 160.325 116.769 160.988 116.769 161.766C116.769 161.9 116.759 162.045 116.738 162.18H112.22V162.201ZM114.086 159.828C113.588 159.828 113.174 159.973 112.842 160.253C112.51 160.532 112.314 160.916 112.231 161.382H115.816C115.733 160.874 115.536 160.491 115.215 160.222C114.883 159.963 114.51 159.828 114.086 159.828Z" fill="white"/>
<path d="M34.5761 175.257H36.0994V186.749H34.8663L28.9598 178.158V186.749H27.4365V175.257H28.6178L34.5761 183.889V175.257Z" fill="white"/>
<path d="M45.3428 185.713C44.5034 186.542 43.4776 186.956 42.2756 186.956C41.0735 186.956 40.0477 186.542 39.2187 185.713C38.3793 184.884 37.9648 183.858 37.9648 182.646C37.9648 181.433 38.3793 180.407 39.2187 179.578C40.058 178.749 41.0735 178.335 42.2756 178.335C43.4776 178.335 44.5034 178.749 45.3428 179.578C46.1821 180.407 46.607 181.433 46.607 182.646C46.607 183.858 46.1925 184.884 45.3428 185.713ZM42.2756 185.568C43.0942 185.568 43.7884 185.288 44.348 184.728C44.9076 184.169 45.1874 183.475 45.1874 182.646C45.1874 181.817 44.9076 181.122 44.348 180.563C43.7884 180.003 43.1045 179.724 42.2756 179.724C41.4673 179.724 40.7834 180.003 40.2238 180.563C39.6643 181.122 39.3845 181.817 39.3845 182.646C39.3845 183.475 39.6643 184.169 40.2238 184.728C40.7834 185.288 41.4673 185.568 42.2756 185.568Z" fill="white"/>
<path d="M57.1656 178.325C58.0879 178.325 58.834 178.625 59.3935 179.216C59.9635 179.817 60.2432 180.615 60.2432 181.64V186.749H58.8132V181.692C58.8132 181.06 58.6474 180.563 58.3262 180.21C57.9946 179.858 57.5594 179.682 57.0102 179.682C56.3988 179.682 55.9118 179.889 55.5388 180.293C55.1761 180.708 54.9896 181.33 54.9896 182.169V186.728H53.5596V181.672C53.5596 181.039 53.4041 180.542 53.0933 180.19C52.7824 179.837 52.3575 179.661 51.8187 179.661C51.2177 179.661 50.7203 179.869 50.3162 180.283C49.9224 180.698 49.7152 181.319 49.7152 182.159V186.718H48.2852V178.511H49.7152V179.609C50.2747 178.739 51.0933 178.293 52.1607 178.293C53.2694 178.293 54.0673 178.76 54.5751 179.692C55.1554 178.791 56.0154 178.325 57.1656 178.325Z" fill="white"/>
<path d="M69.0413 178.542H70.4713V186.749H69.0413V185.34C68.3263 186.428 67.2901 186.967 65.9326 186.967C64.7824 186.967 63.8084 186.552 62.9897 185.713C62.1815 184.874 61.7773 183.858 61.7773 182.646C61.7773 181.433 62.1815 180.418 62.9897 179.578C63.798 178.739 64.7824 178.325 65.9326 178.325C67.2901 178.325 68.3263 178.863 69.0413 179.951V178.542ZM66.1191 185.578C66.9481 185.578 67.6424 185.298 68.202 184.728C68.7615 184.159 69.0413 183.464 69.0413 182.635C69.0413 181.806 68.7615 181.102 68.202 180.542C67.6424 179.983 66.9481 179.692 66.1191 179.692C65.3005 179.692 64.6062 179.972 64.0467 180.542C63.4871 181.102 63.2073 181.806 63.2073 182.635C63.2073 183.464 63.4871 184.169 64.0467 184.728C64.6062 185.298 65.2902 185.578 66.1191 185.578Z" fill="white"/>
<path d="M76.7195 178.325C77.6832 178.325 78.45 178.625 79.0302 179.236C79.6105 179.848 79.9007 180.666 79.9007 181.703V186.739H78.4707V181.775C78.4707 181.112 78.2945 180.594 77.9318 180.221C77.5692 179.858 77.0718 179.672 76.4397 179.672C75.7247 179.672 75.1548 179.889 74.7195 180.335C74.2843 180.78 74.0667 181.454 74.0667 182.376V186.728H72.6367V178.521H74.0667V179.703C74.6366 178.791 75.5278 178.325 76.7195 178.325Z" fill="white"/>
<path d="M96.8947 175.257V186.749H95.3818V177.765L91.6203 184.024L91.4338 184.013L87.6619 177.755V186.739H86.1387V175.247H87.8588L91.5374 181.35L95.1849 175.247H96.8947V175.257Z" fill="white"/>
<path d="M106.014 178.542H107.444V186.749H106.014V185.34C105.299 186.428 104.263 186.967 102.905 186.967C101.755 186.967 100.781 186.552 99.9624 185.713C99.1541 184.874 98.75 183.858 98.75 182.646C98.75 181.433 99.1541 180.418 99.9624 179.578C100.771 178.739 101.755 178.325 102.905 178.325C104.263 178.325 105.299 178.863 106.014 179.951V178.542ZM103.092 185.578C103.921 185.578 104.615 185.298 105.175 184.728C105.734 184.159 106.014 183.464 106.014 182.635C106.014 181.806 105.734 181.102 105.175 180.542C104.615 179.983 103.921 179.692 103.092 179.692C102.273 179.692 101.579 179.972 101.019 180.542C100.46 181.102 100.18 181.806 100.18 182.635C100.18 183.464 100.46 184.169 101.019 184.728C101.579 185.298 102.263 185.578 103.092 185.578Z" fill="white"/>
<path d="M113.692 178.325C114.656 178.325 115.423 178.625 116.003 179.236C116.583 179.848 116.873 180.666 116.873 181.703V186.739H115.443V181.775C115.443 181.112 115.267 180.594 114.905 180.221C114.542 179.858 114.044 179.672 113.412 179.672C112.697 179.672 112.127 179.889 111.692 180.335C111.257 180.78 111.039 181.454 111.039 182.376V186.728H109.609V178.521H111.039V179.703C111.609 178.791 112.5 178.325 113.692 178.325Z" fill="white"/>
<path d="M120.417 185.381H124.779V186.749H118.469V185.785L122.665 179.9H118.645V178.532H124.624V179.475L120.417 185.381Z" fill="white"/>
<path d="M132.935 185.713C132.095 186.542 131.069 186.956 129.867 186.956C128.665 186.956 127.639 186.542 126.81 185.713C125.971 184.884 125.557 183.858 125.557 182.646C125.557 181.433 125.971 180.407 126.81 179.578C127.65 178.749 128.665 178.335 129.867 178.335C131.069 178.335 132.095 178.749 132.935 179.578C133.774 180.407 134.199 181.433 134.199 182.646C134.199 183.858 133.774 184.884 132.935 185.713ZM129.867 185.568C130.686 185.568 131.38 185.288 131.94 184.728C132.499 184.169 132.779 183.475 132.779 182.646C132.779 181.817 132.499 181.122 131.94 180.563C131.38 180.003 130.696 179.724 129.867 179.724C129.059 179.724 128.375 180.003 127.816 180.563C127.256 181.122 126.976 181.817 126.976 182.646C126.976 183.475 127.256 184.169 127.816 184.728C128.375 185.288 129.059 185.568 129.867 185.568Z" fill="white"/>
<path d="M142.82 185.713C141.981 186.542 140.955 186.956 139.753 186.956C138.551 186.956 137.525 186.542 136.696 185.713C135.857 184.884 135.442 183.858 135.442 182.646C135.442 181.433 135.857 180.407 136.696 179.578C137.536 178.749 138.551 178.335 139.753 178.335C140.955 178.335 141.981 178.749 142.82 179.578C143.66 180.407 144.085 181.433 144.085 182.646C144.085 183.858 143.66 184.884 142.82 185.713ZM139.743 185.568C140.561 185.568 141.256 185.288 141.815 184.728C142.375 184.169 142.655 183.475 142.655 182.646C142.655 181.817 142.375 181.122 141.815 180.563C141.256 180.003 140.572 179.724 139.743 179.724C138.934 179.724 138.251 180.003 137.691 180.563C137.131 181.122 136.852 181.817 136.852 182.646C136.852 183.475 137.131 184.169 137.691 184.728C138.251 185.288 138.934 185.568 139.743 185.568Z" fill="white"/>
<path d="M147.203 179.92C147.67 178.905 148.53 178.397 149.763 178.397V179.889C149.058 179.858 148.457 180.045 147.96 180.449C147.452 180.853 147.203 181.506 147.203 182.407V186.759H145.773V178.553H147.203V179.92Z" fill="white"/>
<path d="M258.619 163.517H262.111V164.46H257.624V156.947H262.059V157.89H258.629V160.201H261.8V161.133H258.629V163.517H258.619Z" fill="white"/>
<path d="M267.872 164.46H266.774L265.261 162.429L263.748 164.46H262.649L264.701 161.693L262.763 159.092H263.872L265.25 160.957L266.639 159.092H267.737L265.8 161.693L267.872 164.46Z" fill="white"/>
<path d="M271.706 158.957C272.462 158.957 273.094 159.227 273.623 159.776C274.151 160.325 274.421 160.988 274.421 161.776C274.421 162.563 274.151 163.227 273.623 163.776C273.094 164.325 272.452 164.594 271.706 164.594C270.815 164.594 270.141 164.242 269.675 163.527V166.594H268.742V159.082H269.675V160.004C270.141 159.31 270.815 158.957 271.706 158.957ZM271.592 163.693C272.131 163.693 272.576 163.506 272.939 163.144C273.302 162.781 273.488 162.315 273.488 161.776C273.488 161.237 273.302 160.781 272.939 160.408C272.576 160.035 272.12 159.859 271.592 159.859C271.043 159.859 270.597 160.045 270.224 160.408C269.861 160.781 269.675 161.237 269.675 161.776C269.675 162.325 269.861 162.781 270.224 163.144C270.587 163.517 271.043 163.693 271.592 163.693Z" fill="white"/>
<path d="M276.007 158.118C275.831 158.118 275.675 158.056 275.551 157.931C275.426 157.807 275.364 157.662 275.364 157.496C275.364 157.32 275.426 157.175 275.551 157.051C275.675 156.926 275.82 156.864 276.007 156.864C276.183 156.864 276.328 156.926 276.442 157.051C276.566 157.175 276.628 157.32 276.628 157.496C276.628 157.672 276.566 157.817 276.442 157.931C276.328 158.056 276.183 158.118 276.007 158.118ZM275.54 164.46V159.092H276.473V164.46H275.54Z" fill="white"/>
<path d="M278.836 159.994C279.147 159.33 279.696 158.999 280.515 158.999V159.973C280.059 159.952 279.665 160.076 279.333 160.336C279.002 160.605 278.836 161.03 278.836 161.61V164.46H277.903V159.092H278.836V159.994Z" fill="white"/>
<path d="M285.281 159.092H286.276L284.089 164.791C283.861 165.403 283.54 165.859 283.126 166.18C282.711 166.501 282.245 166.636 281.706 166.605V165.734C282.359 165.786 282.846 165.423 283.146 164.636L283.25 164.439L280.908 159.092H281.903L283.696 163.206L285.281 159.092Z" fill="white"/>
<path d="M292.772 156.947C293.798 156.947 294.648 157.31 295.321 158.035C295.995 158.76 296.337 159.652 296.337 160.698C296.337 161.745 295.995 162.636 295.321 163.361C294.648 164.087 293.798 164.449 292.772 164.449H289.84V156.937H292.772V156.947ZM292.772 163.517C293.539 163.517 294.161 163.247 294.648 162.708C295.135 162.17 295.373 161.506 295.373 160.698C295.373 159.89 295.135 159.227 294.648 158.688C294.161 158.149 293.539 157.88 292.772 157.88H290.845V163.506H292.772V163.517Z" fill="white"/>
<path d="M301.902 159.092H302.835V164.46H301.902V163.537C301.436 164.242 300.762 164.605 299.871 164.605C299.125 164.605 298.483 164.335 297.954 163.786C297.426 163.237 297.156 162.574 297.156 161.786C297.156 160.999 297.426 160.335 297.954 159.786C298.483 159.237 299.125 158.968 299.871 158.968C300.762 158.968 301.436 159.32 301.902 160.035V159.092ZM299.985 163.693C300.524 163.693 300.98 163.506 301.353 163.144C301.726 162.781 301.902 162.315 301.902 161.776C301.902 161.237 301.716 160.781 301.353 160.408C300.99 160.035 300.534 159.859 299.985 159.859C299.446 159.859 299.001 160.045 298.638 160.408C298.275 160.781 298.089 161.237 298.089 161.776C298.089 162.325 298.275 162.781 298.638 163.144C299.001 163.517 299.446 163.693 299.985 163.693Z" fill="white"/>
<path d="M307.166 159.994H305.736V162.905C305.736 163.175 305.788 163.361 305.892 163.465C305.995 163.579 306.151 163.631 306.368 163.641C306.586 163.641 306.845 163.641 307.166 163.62V164.46C306.348 164.563 305.757 164.501 305.374 164.263C304.99 164.024 304.804 163.569 304.804 162.905V159.994H303.736V159.092H304.804V157.869L305.736 157.589V159.092H307.166V159.994Z" fill="white"/>
<path d="M308.658 162.201C308.751 162.677 308.969 163.05 309.321 163.32C309.663 163.579 310.098 163.714 310.606 163.714C311.311 163.714 311.829 163.455 312.15 162.926L312.948 163.372C312.43 164.18 311.642 164.584 310.585 164.584C309.735 164.584 309.041 164.315 308.513 163.786C307.984 163.258 307.715 162.574 307.715 161.766C307.715 160.957 307.974 160.284 308.502 159.745C309.02 159.206 309.704 158.937 310.533 158.937C311.321 158.937 311.963 159.216 312.461 159.766C312.958 160.325 313.207 160.988 313.207 161.766C313.207 161.9 313.196 162.045 313.176 162.18H308.658V162.201ZM310.513 159.828C310.015 159.828 309.601 159.973 309.269 160.253C308.938 160.532 308.741 160.916 308.658 161.382H312.243C312.16 160.874 311.963 160.491 311.642 160.222C311.321 159.963 310.948 159.828 310.513 159.828Z" fill="white"/>
<path d="M265.262 185.34C264.485 186.428 263.396 186.967 261.998 186.967C260.599 186.967 259.511 186.428 258.733 185.34C257.956 184.252 257.562 182.811 257.562 181.008C257.562 179.205 257.956 177.755 258.733 176.677C259.511 175.599 260.599 175.05 261.998 175.05C263.396 175.05 264.485 175.589 265.262 176.677C266.039 177.765 266.422 179.205 266.422 181.008C266.422 182.811 266.039 184.252 265.262 185.34ZM259.842 184.304C260.35 185.081 261.065 185.475 261.998 185.475C262.93 185.475 263.645 185.081 264.153 184.304C264.661 183.526 264.92 182.428 264.92 181.008C264.92 179.589 264.661 178.48 264.153 177.703C263.645 176.926 262.92 176.532 261.998 176.532C261.065 176.532 260.35 176.926 259.842 177.703C259.334 178.48 259.086 179.589 259.086 181.019C259.086 182.428 259.334 183.526 259.842 184.304Z" fill="white"/>
<path d="M267.541 186.749V185.506L271.593 181.371C272.681 180.283 273.22 179.361 273.22 178.584C273.22 177.941 273.023 177.433 272.629 177.071C272.235 176.708 271.748 176.532 271.189 176.532C270.101 176.532 269.313 177.05 268.826 178.076L267.541 177.319C267.904 176.573 268.401 176.014 269.044 175.63C269.686 175.247 270.391 175.06 271.168 175.06C272.132 175.06 272.971 175.382 273.676 176.014C274.39 176.646 274.743 177.506 274.743 178.573C274.743 179.734 274.059 180.998 272.691 182.366L269.759 185.288H274.95V186.77H267.541V186.749Z" fill="white"/>
<path d="M277.085 188.366L276.235 188.386L282.805 173.63L283.655 173.61L277.085 188.366Z" fill="white"/>
<path d="M289.458 179.962C290.339 180.128 291.054 180.501 291.613 181.091C292.173 181.682 292.453 182.428 292.453 183.34C292.453 184.459 292.069 185.34 291.303 185.982C290.536 186.625 289.603 186.946 288.515 186.946C287.634 186.946 286.857 186.749 286.184 186.345C285.5 185.941 285.023 185.371 284.743 184.614L286.028 183.858C286.37 184.915 287.199 185.454 288.525 185.454C289.24 185.454 289.821 185.267 290.266 184.894C290.712 184.521 290.94 184.003 290.94 183.34C290.94 182.677 290.712 182.148 290.266 181.775C289.821 181.402 289.24 181.205 288.525 181.205H288.132L287.52 180.273L290.183 176.677H285.075V175.247H291.966L291.955 176.584L289.458 179.962Z" fill="white"/>
<path d="M301.499 185.34C300.722 186.428 299.634 186.967 298.235 186.967C296.836 186.967 295.748 186.428 294.971 185.34C294.194 184.252 293.8 182.811 293.8 181.008C293.8 179.205 294.194 177.755 294.971 176.677C295.748 175.599 296.836 175.05 298.235 175.05C299.634 175.05 300.722 175.589 301.499 176.677C302.276 177.765 302.67 179.205 302.67 181.008C302.66 182.811 302.276 184.252 301.499 185.34ZM296.079 184.304C296.587 185.081 297.302 185.475 298.235 185.475C299.167 185.475 299.882 185.081 300.39 184.304C300.898 183.526 301.157 182.428 301.157 181.008C301.157 179.589 300.898 178.48 300.39 177.703C299.882 176.926 299.157 176.532 298.235 176.532C297.302 176.532 296.587 176.926 296.079 177.703C295.572 178.48 295.323 179.589 295.323 181.019C295.323 182.428 295.572 183.526 296.079 184.304Z" fill="white"/>
<path d="M324.669 34.3508H321.177C320.089 34.3508 319.27 34.6513 318.804 35.7187L312.089 50.9408H316.835C316.835 50.9408 317.622 48.8995 317.798 48.4539H323.581C323.726 49.0342 324.13 50.9408 324.13 50.9408H328.327L324.669 34.3508ZM319.104 45.0654C319.467 44.1017 320.876 40.4128 320.876 40.4128C320.876 40.4128 321.27 39.4387 321.487 38.8377L321.788 40.2677C321.788 40.2677 322.669 44.2157 322.845 45.0654H319.104Z" fill="white"/>
<path d="M306.069 38.9518C306.058 39.729 307.032 40.2471 308.618 41.0139C311.219 42.1952 312.431 43.6355 312.41 45.5215C312.379 48.9618 309.291 51.1896 304.535 51.1896C302.514 51.1689 300.556 50.7544 299.499 50.3089L300.141 46.5888L300.722 46.8582C302.204 47.4696 303.167 47.7286 304.981 47.7286C306.276 47.7286 307.664 47.2209 307.675 46.1121C307.685 45.3764 307.095 44.8583 305.333 44.0397C303.613 43.2521 301.343 41.9258 301.364 39.5424C301.385 36.3198 304.535 34.0608 309.001 34.0608C310.752 34.0608 312.162 34.4235 313.063 34.7551L312.452 38.3508L312.048 38.1643C311.208 37.8223 310.141 37.5011 308.659 37.5218C306.898 37.5218 306.069 38.2679 306.069 38.9518Z" fill="white"/>
<path d="M299.498 34.3406L296.659 50.9306H292.151L294.98 34.3406H299.498Z" fill="white"/>
<path d="M283.261 42.879C281.758 39.045 278.152 35.8534 272.691 34.527L272.754 34.1851H279.769C280.722 34.2161 281.479 34.527 281.748 35.5322L283.261 42.879Z" fill="white"/>
<path d="M293.146 34.3508L286.017 50.9098H281.24L277.188 37.0865C280.1 38.9517 282.577 41.9049 283.447 43.9567L283.924 45.6664L288.359 34.3508H293.146Z" fill="white"/>
<path d="M60.0061 58.7023H31.7378C29.9451 58.7023 28.4736 57.2309 28.4736 55.4382V34.4961C28.4736 32.7034 29.9451 31.2319 31.7378 31.2319H60.0061C61.7987 31.2319 63.2702 32.7034 63.2702 34.4961V55.4382C63.2805 57.2413 61.8091 58.7023 60.0061 58.7023Z" fill="#F6C859"/>
<path d="M41.8715 55.0446C41.7264 55.0446 41.5813 54.9617 41.5088 54.827C41.4052 54.6301 41.4881 54.3814 41.6849 54.2881C42.2652 53.9876 43.0631 53.4281 43.5191 52.454C44.0994 51.2209 43.9543 49.8842 43.7056 49.7702C43.6434 49.7391 43.3947 49.8634 43.2496 49.9463C42.8662 50.1432 42.3481 50.4126 41.7368 50.195C41.1357 49.9878 40.8456 49.4593 40.7109 49.2002C39.799 47.5319 39.5192 43.1798 40.4829 41.014C40.8041 40.299 41.2394 39.8742 41.7782 39.7498C42.3274 39.6255 42.773 39.8535 43.1357 40.04C43.4362 40.1954 43.5812 40.2576 43.6745 40.2058C44.0475 39.9778 44.0372 38.5996 43.5191 37.5012C43.0631 36.5272 42.2652 35.9676 41.6849 35.6671C41.4881 35.5635 41.4052 35.3251 41.5088 35.1283C41.6124 34.9314 41.8507 34.8485 42.0476 34.9521C42.7419 35.3044 43.6849 35.978 44.2444 37.1489C44.7936 38.3095 45.0527 40.3094 44.089 40.8897C43.602 41.1798 43.1357 40.9415 42.7626 40.755C42.4828 40.6099 42.2134 40.4752 41.9544 40.5374C41.602 40.6203 41.3533 41.0244 41.2083 41.356C40.3689 43.2419 40.6073 47.3558 41.4052 48.8272C41.5399 49.0759 41.7057 49.3453 41.9854 49.4489C42.2549 49.5422 42.5139 49.4282 42.8766 49.2417C43.2289 49.0655 43.6227 48.8583 44.0475 49.0655C44.9491 49.5007 44.8869 51.4489 44.2341 52.827C43.6745 53.998 42.7315 54.6715 42.0373 55.0238C41.9958 55.0238 41.9336 55.0446 41.8715 55.0446Z" fill="#7D662D"/>
<path d="M40.6597 41.7394H33.4061C33.1885 41.7394 33.002 41.5633 33.002 41.3353C33.002 41.1073 33.1781 40.9312 33.4061 40.9312H40.6597C40.8773 40.9312 41.0638 41.1073 41.0638 41.3353C41.0638 41.5633 40.8877 41.7394 40.6597 41.7394Z" fill="#7D662D"/>
<path d="M40.6597 48.993H33.4061C33.1885 48.993 33.002 48.8168 33.002 48.5888C33.002 48.3712 33.1781 48.1847 33.4061 48.1847H40.6597C40.8773 48.1847 41.0638 48.3609 41.0638 48.5888C41.0638 48.8168 40.8877 48.993 40.6597 48.993Z" fill="#7D662D"/>
<path d="M50.3377 55.0446C50.2756 55.0446 50.2134 55.0342 50.1512 55.0031C49.457 54.6508 48.514 53.9773 47.9544 52.8063C47.3016 51.4281 47.2394 49.4904 48.1409 49.0448C48.5658 48.8376 48.9596 49.0448 49.3119 49.221C49.6746 49.4075 49.9336 49.5215 50.203 49.4282C50.5035 49.3246 50.6797 49.0034 50.7833 48.8065C51.5916 47.335 51.8299 43.2316 50.9802 41.3353C50.8351 41.014 50.5864 40.5995 50.2341 40.5166C50.0165 40.4648 49.8818 40.2472 49.9336 40.0296C49.9854 39.812 50.203 39.6773 50.4206 39.7291C50.9595 39.8535 51.3947 40.2783 51.7159 41.0037C52.6796 43.159 52.3998 47.5112 51.488 49.1899C51.3532 49.4489 51.0527 49.9774 50.4621 50.1846C49.8507 50.3919 49.3326 50.1328 48.9492 49.936C48.8041 49.8634 48.5554 49.7391 48.4933 49.7598C48.2549 49.8738 48.0995 51.2105 48.6798 52.4436C49.1357 53.4177 49.9336 53.9772 50.5139 54.2778C50.7108 54.3814 50.7937 54.6197 50.6901 54.8166C50.6175 54.9617 50.4828 55.0446 50.3377 55.0446Z" fill="#7D662D"/>
<path d="M48.7211 40.1332C48.5553 40.1332 48.3999 40.0296 48.3377 39.8534C47.4776 37.2629 49.4983 35.2629 50.1511 34.9313C50.348 34.8277 50.5967 34.9106 50.6899 35.1075C50.7935 35.3044 50.7106 35.5531 50.5138 35.6463C50.2236 35.7914 48.3688 37.3872 49.1045 39.5944C49.177 39.8016 49.063 40.0296 48.8454 40.1021C48.804 40.1229 48.7625 40.1332 48.7211 40.1332Z" fill="#7D662D"/>
<path d="M58.7935 41.7394H51.5399C51.3223 41.7394 51.1357 41.5633 51.1357 41.3353C51.1357 41.1073 51.3119 40.9312 51.5399 40.9312H58.7935C59.0111 40.9312 59.1976 41.1073 59.1976 41.3353C59.1976 41.5633 59.0214 41.7394 58.7935 41.7394Z" fill="#7D662D"/>
<path d="M58.7935 48.993H51.5399C51.3223 48.993 51.1357 48.8168 51.1357 48.5888C51.1357 48.3712 51.3119 48.1847 51.5399 48.1847H58.7935C59.0111 48.1847 59.1976 48.3609 59.1976 48.5888C59.1976 48.8168 59.0214 48.993 58.7935 48.993Z" fill="#7D662D"/>
<defs>
<linearGradient id="paint0_linear_36_450" x1="113.313" y1="275.961" x2="199.11" y2="55.51" gradientUnits="userSpaceOnUse">
<stop stop-color="#93278F"/>
<stop offset="1" stop-color="#29ABE2"/>
</linearGradient>
</defs>
</svg>
